<svg width="59" height="59" viewBox="0 0 59 59" fill="none" xmlns="http://www.w3.org/2000/svg">
<g filter="url(#filter0_d_24_4)">
<circle cx="29.5" cy="25.5" r="25.5" fill="black"/>
</g>
<path d="M22.7615 30.974H27.2795V32H21.5015V19.418H22.7615V30.974ZM32.8937 32.126C32.0657 32.126 31.3337 31.982 30.6977 31.694C30.0737 31.406 29.5817 31.004 29.2217 30.488C28.8617 29.972 28.6697 29.396 28.6457 28.76H29.9777C30.0377 29.372 30.3077 29.912 30.7877 30.38C31.2677 30.836 31.9697 31.064 32.8937 31.064C33.7457 31.064 34.4177 30.848 34.9097 30.416C35.4137 29.972 35.6657 29.414 35.6657 28.742C35.6657 28.202 35.5277 27.77 35.2517 27.446C34.9757 27.11 34.6337 26.864 34.2257 26.708C33.8177 26.54 33.2537 26.36 32.5337 26.168C31.6937 25.94 31.0277 25.718 30.5357 25.502C30.0437 25.286 29.6237 24.95 29.2757 24.494C28.9277 24.038 28.7537 23.42 28.7537 22.64C28.7537 21.992 28.9217 21.416 29.2577 20.912C29.5937 20.396 30.0677 19.994 30.6797 19.706C31.2917 19.418 31.9937 19.274 32.7857 19.274C33.9497 19.274 34.8857 19.562 35.5937 20.138C36.3137 20.702 36.7277 21.434 36.8357 22.334H35.4677C35.3837 21.818 35.1017 21.362 34.6217 20.966C34.1417 20.558 33.4937 20.354 32.6777 20.354C31.9217 20.354 31.2917 20.558 30.7877 20.966C30.2837 21.362 30.0317 21.908 30.0317 22.604C30.0317 23.132 30.1697 23.558 30.4457 23.882C30.7217 24.206 31.0637 24.452 31.4717 24.62C31.8917 24.788 32.4557 24.968 33.1637 25.16C33.9797 25.388 34.6397 25.616 35.1437 25.844C35.6477 26.06 36.0737 26.396 36.4217 26.852C36.7697 27.308 36.9437 27.92 36.9437 28.688C36.9437 29.276 36.7877 29.834 36.4757 30.362C36.1637 30.89 35.7017 31.316 35.0897 31.64C34.4777 31.964 33.7457 32.126 32.8937 32.126Z" fill="white"/>
<defs>
<filter id="filter0_d_24_4" x="0" y="0" width="59" height="59" filterUnits="userSpaceOnUse" color-interpolation-filters="sRGB">
<feFlood flood-opacity="0" result="BackgroundImageFix"/>
<feColorMatrix in="SourceAlpha" type="matrix" values="0 0 0 0 0 0 0 0 0 0 0 0 0 0 0 0 0 0 127 0" result="hardAlpha"/>
<feOffset dy="4"/>
<feGaussianBlur stdDeviation="2"/>
<feComposite in2="hardAlpha" operator="out"/>
<feColorMatrix type="matrix" values="0 0 0 0 0 0 0 0 0 0 0 0 0 0 0 0 0 0 0.25 0"/>
<feBlend mode="normal" in2="BackgroundImageFix" result="effect1_dropShadow_24_4"/>
<feBlend mode="normal" in="SourceGraphic" in2="effect1_dropShadow_24_4" result="shape"/>
</filter>
</defs>
</svg>
